<svg width="100" height="100" fill="none" xmlns="http://www.w3.org/2000/svg">
    <path d="M50 100c27.614 0 50-22.386 50-50S77.614 0 50 0 0 22.386 0 50s22.386 50 50 50z" fill="#E2E2E2"/>
    <path clip-rule="evenodd"
          d="M22.45 22h24.632a.45.45 0 0 1 .45.45v24.632a.45.45 0 0 1-.45.45H22.45a.45.45 0 0 1-.45-.45V22.45a.45.45 0 0 1 .45-.45z"
          stroke="#2B2A29" stroke-width="2" stroke-miterlimit="22.926"/>
    <path clip-rule="evenodd"
          d="M29.824 22.09h9.883v10.499a.462.462 0 0 1-.235.412.424.424 0 0 1-.46-.02l-4.078-2.77a.427.427 0 0 0-.496.003l-3.913 2.748a.425.425 0 0 1-.462.025.462.462 0 0 1-.239-.414V22.09zM22.45 52.468h24.632a.45.45 0 0 1 .45.45V77.55a.45.45 0 0 1-.45.45H22.45a.45.45 0 0 1-.45-.45V52.918a.45.45 0 0 1 .45-.45z"
          stroke="#2B2A29" stroke-width="2" stroke-miterlimit="22.926"/>
    <path clip-rule="evenodd"
          d="M29.824 52.558h9.883v10.499a.462.462 0 0 1-.235.412.424.424 0 0 1-.46-.02l-4.078-2.77a.427.427 0 0 0-.496.003l-3.913 2.748a.425.425 0 0 1-.462.025.462.462 0 0 1-.239-.414V52.558zM52.186 22H76.82a.45.45 0 0 1 .45.45v24.632a.45.45 0 0 1-.45.45H52.186a.451.451 0 0 1-.45-.45V22.45c0-.248.203-.45.45-.45z"
          stroke="#2B2A29" stroke-width="2" stroke-miterlimit="22.926"/>
    <path clip-rule="evenodd"
          d="M59.561 22.09h9.883v10.499a.462.462 0 0 1-.235.412.424.424 0 0 1-.46-.02l-4.078-2.77a.427.427 0 0 0-.496.003l-3.913 2.748a.425.425 0 0 1-.462.025.462.462 0 0 1-.239-.414V22.09zM52.186 52.468H76.82a.45.45 0 0 1 .45.45V77.55a.45.45 0 0 1-.45.45H52.186a.451.451 0 0 1-.45-.45V52.918c0-.247.203-.45.45-.45z"
          stroke="#2B2A29" stroke-width="2" stroke-miterlimit="22.926"/>
    <path clip-rule="evenodd"
          d="M59.561 52.558h9.883v10.499a.462.462 0 0 1-.235.412.424.424 0 0 1-.46-.02l-4.078-2.77a.427.427 0 0 0-.496.003l-3.913 2.748a.425.425 0 0 1-.462.025.462.462 0 0 1-.239-.414V52.558z"
          stroke="#2B2A29" stroke-width="2" stroke-miterlimit="22.926"/>
</svg>