<svg width="100" height="100" viewBox="0 0 100 100" fill="none" xmlns="http://www.w3.org/2000/svg">
<path d="M50 100C77.6142 100 100 77.6142 100 50C100 22.3858 77.6142 0 50 0C22.3858 0 0 22.3858 0 50C0 77.6142 22.3858 100 50 100Z" fill="#E2E2E2"/>
<path fill-rule="evenodd" clip-rule="evenodd" d="M22.4496 22H47.0821C47.3294 22 47.5317 22.2023 47.5317 22.4496V47.0821C47.5317 47.3294 47.3294 47.5317 47.0821 47.5317H22.4496C22.2023 47.5317 22 47.3294 22 47.0821V22.4496C22 22.2023 22.2023 22 22.4496 22Z" stroke="#2B2A29" stroke-width="2" stroke-miterlimit="22.9256"/>
<path fill-rule="evenodd" clip-rule="evenodd" d="M29.8243 22.0898H39.7074V32.5886C39.7074 32.7652 39.6209 32.9168 39.472 33.0009C39.3232 33.0851 39.1543 33.078 39.0124 32.9816L34.9345 30.2103C34.7799 30.1053 34.5909 30.1068 34.4379 30.2142L30.5251 32.9619C30.3836 33.0612 30.2132 33.0704 30.0626 32.9869C29.9121 32.9033 29.8243 32.7508 29.8243 32.5729V22.0899V22.0898Z" stroke="#2B2A29" stroke-width="2" stroke-miterlimit="22.9256"/>
<path fill-rule="evenodd" clip-rule="evenodd" d="M22.4496 52.4683H47.0821C47.3294 52.4683 47.5317 52.6706 47.5317 52.9179V77.5504C47.5317 77.7977 47.3294 78 47.0821 78H22.4496C22.2023 78 22 77.7977 22 77.5504V52.9179C22 52.6706 22.2023 52.4683 22.4496 52.4683Z" stroke="#2B2A29" stroke-width="2" stroke-miterlimit="22.9256"/>
<path fill-rule="evenodd" clip-rule="evenodd" d="M29.8243 52.5581H39.7074V63.0569C39.7074 63.2335 39.6209 63.385 39.472 63.4692C39.3232 63.5533 39.1543 63.5463 39.0124 63.4498L34.9345 60.6786C34.7799 60.5735 34.5909 60.5751 34.4379 60.6825L30.5251 63.4301C30.3836 63.5295 30.2132 63.5387 30.0626 63.4552C29.9121 63.3716 29.8243 63.219 29.8243 63.0412V52.5582V52.5581Z" stroke="#2B2A29" stroke-width="2" stroke-miterlimit="22.9256"/>
<path fill-rule="evenodd" clip-rule="evenodd" d="M52.1864 22H76.819C77.0662 22 77.2685 22.2023 77.2685 22.4496V47.0821C77.2685 47.3294 77.0662 47.5317 76.819 47.5317H52.1864C51.9392 47.5317 51.7368 47.3294 51.7368 47.0821V22.4496C51.7368 22.2023 51.9392 22 52.1864 22Z" stroke="#2B2A29" stroke-width="2" stroke-miterlimit="22.9256"/>
<path fill-rule="evenodd" clip-rule="evenodd" d="M59.5611 22.0898H69.4442V32.5886C69.4442 32.7652 69.3577 32.9168 69.2089 33.0009C69.0599 33.0851 68.8911 33.078 68.7492 32.9816L64.6713 30.2103C64.5168 30.1053 64.3277 30.1068 64.1747 30.2142L60.2619 32.9619C60.1205 33.0612 59.9501 33.0704 59.7995 32.9869C59.6489 32.9033 59.5611 32.7508 59.5611 32.5729V22.0899V22.0898Z" stroke="#2B2A29" stroke-width="2" stroke-miterlimit="22.9256"/>
<path fill-rule="evenodd" clip-rule="evenodd" d="M52.1864 52.4683H76.819C77.0662 52.4683 77.2685 52.6706 77.2685 52.9179V77.5504C77.2685 77.7977 77.0662 78 76.819 78H52.1864C51.9392 78 51.7368 77.7977 51.7368 77.5504V52.9179C51.7368 52.6706 51.9392 52.4683 52.1864 52.4683Z" stroke="#2B2A29" stroke-width="2" stroke-miterlimit="22.9256"/>
<path fill-rule="evenodd" clip-rule="evenodd" d="M59.5611 52.5581H69.4442V63.0569C69.4442 63.2335 69.3577 63.385 69.2089 63.4692C69.0599 63.5533 68.8911 63.5463 68.7492 63.4498L64.6713 60.6786C64.5168 60.5735 64.3277 60.5751 64.1747 60.6825L60.2619 63.4301C60.1205 63.5295 59.9501 63.5387 59.7995 63.4552C59.6489 63.3716 59.5611 63.219 59.5611 63.0412V52.5582V52.5581Z" stroke="#2B2A29" stroke-width="2" stroke-miterlimit="22.9256"/>
</svg>
